<svg xmlns="http://www.w3.org/2000/svg" style="isolation:isolate" width="42" height="66"><defs><clipPath id="a"><path d="M0 0h42v66H0z"/></clipPath></defs><g clip-path="url(#a)"><path d="M21.5 65.3v-3l.3-.3v-1.3h3.1l.4-2.2h.9l.1-3.5 14.8-1.7v.9c0 .2.6.5.7.5h.1l.2-.1L42 42h-.2c-.4.3-.8.8-.7 1v2.7h.2v.9L27.6 30.5c-.2-.2-.3-1.1-.3-1.7l3 .7V27L26 22v-.5l-.8-.8s-.9-3-1.3-5c-.5-2-1-6.2-1.5-8.6C22 4.8 20.7 0 20.7 0l-1.5 7.2-1.3 8.7c-.4 2-1.3 5-1.3 5l-.8.8v.5l-4.3 5.1v2.4l3-.7c.1.5 0 1.5-.2 1.7L.8 47V46H1v-2.6c0-.2-.3-.7-.7-1H0v12.5l.2.1h.1c.2 0 .7-.4.7-.5v-.9l14.8 1.5.2 3.5h.9l.4 2.2h3l.1 1.2.3.2v3.1h.7z" fill-rule="evenodd" fill="#FFF"/></g></svg>