<svg xmlns="http://www.w3.org/2000/svg" style="isolation:isolate" width="42" height="58"><defs><clipPath id="a"><path d="M0 0h42v58H0z"/></clipPath></defs><g clip-path="url(#a)"><path d="M21.4 58.3c.13-.07.35-.24.35-.3l-.01-1.28 3.14-.57.32-2.25.93-.17.16-3.5 14.77-4.3.01.85c0 .16.52.44.67.41l.13-.02c.05 0 .13-.14.13-.17l-.09-12.47a.76.76 0 0 0-.2.11c-.4.31-.72.85-.72 1.05l.02 2.68.22-.04v.9l-13.7-13.71c-.19-.18-.33-1.13-.34-1.7l3.1.13-.02-2.35-4.41-4.33v-.48l-.8-.64s-.92-2.81-1.37-4.77c-.45-1.96-.98-6.07-1.44-8.35-.26-1.32-.85-3.1-1.6-2.97-.77.14-1.26 2.31-1.48 3.53-.42 2.45-.9 6.74-1.32 8.86-.42 2.12-1.3 5.26-1.3 5.26l-.78.93v.48l-4.34 5.93.02 2.35 3.08-1.25c0 .56-.13 1.56-.3 1.8L.73 46.65v-.9l.21-.04-.02-2.68c0-.2-.33-.61-.73-.78a.54.54 0 0 0-.2-.03l.09 12.46c0 .03.08.14.13.13l.13-.03c.15-.02.66-.5.66-.66v-.85l14.8-1.11.2 3.42.93-.17.36 2.13 3.13-.58.01 1.28c0 .06.22.15.34.17l.63-.12z" fill-rule="evenodd" fill="#FFF"/><path d="M18.82 26.3c-.05-.9-1.22-1.73-1.29-4.69-.06-2.96 1.6-7.86 2.28-9.05.67-1.19 1.32-1.3 1.99-.35.67.95 2.27 5.02 2.2 8.26-.07 3.24-1.16 4.37-1.2 5.13-.05.76-3.94 1.6-3.98.7z" fill="#85D4F7"/></g></svg>