<svg xmlns="http://www.w3.org/2000/svg" style="isolation:isolate" width="58" height="58">
  <g transform="translate(8,0)">
    <path d="M21.4 58.44c.13-.02.35-.12.35-.17l-.01-1.29 3.14.54.32-2.14.93.16.16-3.44 14.77.9.01.85c0 .17.52.63.67.66l.13.02c.05.01.13-.1.13-.13l-.09-12.5a.55.55 0 0 0-.2.05c-.4.17-.72.59-.72.78l.02 2.7.22.03v.9l-13.7-18.54a4.7 4.7 0 0 1-.34-1.81l3.1 1.21-.02-2.35-4.41-5.89v-.48l-.8-.92s-.92-3.13-1.37-5.25c-.45-2.12-.98-6.42-1.44-8.86-.26-1.4-.85-3.4-1.6-3.53-.77-.13-1.26 1.86-1.48 3-.42 2.3-.9 6.43-1.32 8.4-.42 1.97-1.3 4.8-1.3 4.8l-.78.65v.49l-4.34 4.4.02 2.35 3.08-.17c0 .57-.13 1.53-.3 1.7L.73 39.5v-.9l.21.04-.02-2.69c0-.2-.33-.73-.73-1.03a.78.78 0 0 0-.2-.11l.09 12.5c0 .03.08.16.13.17l.13.02c.15.03.66-.26.66-.43v-.85l14.8 4.1.2 3.5.93.16.36 2.25 3.13.53.01 1.28c0 .06.22.23.34.29l.63.1z" fill-rule="evenodd" fill="#FFF"/>
    <path d="M18.82 25.53c-.05-.92-1.22-2.16-1.29-5.14-.06-2.99 1.6-7.3 2.28-8.25.67-.95 1.32-.84 1.99.35.67 1.2 2.27 5.83 2.2 9.04-.07 3.21-1.16 3.96-1.2 4.7-.05.75-3.94.22-3.98-.7z" fill="#85D4F7"/>
  </g>
</svg>
