<svg xmlns="http://www.w3.org/2000/svg" style="isolation:isolate" width="58" height="58">
  <defs>
    <clipPath id="a">
      <path d="M0 0h42v58H0z"/>
    </clipPath>
  </defs>
  <g transform="translate(8,0)">
    <path d="M21.4 58.36c.13-.04.35-.17.35-.23l-.01-1.28 3.14-.02.32-2.2h.93l.16-3.46 14.77-1.7.01.85c0 .16.52.53.67.53h.13c.05 0 .13-.12.13-.15l-.09-12.48a.61.61 0 0 0-.2.08c-.4.23-.72.71-.72.91l.02 2.68h.22v.9l-13.7-16.12a4.27 4.27 0 0 1-.34-1.75l3.1.67-.02-2.35-4.41-5.11v-.48l-.8-.78s-.92-2.98-1.37-5.02c-.45-2.04-.98-6.24-1.44-8.6-.26-1.36-.85-3.26-1.6-3.25-.77 0-1.26 2.09-1.48 3.27-.42 2.37-.9 6.58-1.32 8.62-.42 2.05-1.3 5.04-1.3 5.04l-.78.79v.48l-4.34 5.17.02 2.35 3.08-.71c0 .56-.13 1.54-.3 1.75L.73 43.08v-.9h.21l-.02-2.69c0-.2-.33-.67-.73-.9a.65.65 0 0 0-.2-.08L.09 51c0 .03.08.15.13.15h.13c.15 0 .66-.38.66-.54v-.86l14.8 1.5.2 3.46h.93l.36 2.18 3.13-.02.01 1.28c0 .06.22.19.34.23h.63z" fill-rule="evenodd" fill="#FFF"/>
    <path d="M18.82 25.92c-.05-.91-1.22-1.95-1.29-4.92-.06-2.97 1.6-7.58 2.28-8.65.67-1.07 1.32-1.07 1.99 0 .67 1.07 2.27 5.42 2.2 8.65-.07 3.23-1.16 4.16-1.2 4.92-.05.75-3.94.9-3.98 0z" fill="#85D4F7"/>
  </g>
</svg>
